<svg width="219" height="163" viewBox="0 0 219 163" fill="none" xmlns="http://www.w3.org/2000/svg">
<path d="M12.2129 163C-23.1586 163 -52 134.14 -52 98.201C-52 16.5216 35.6124 -51 35.6124 -51L47.5843 -41.1985C31.259 -18.8728 19.8313 4.54198 17.1104 33.9466C50.8494 36.1247 76.9699 64.4402 76.9699 98.201C76.9699 134.14 48.1285 163 12.2129 163ZM154.787 163C118.871 163 90.0301 134.14 90.0301 98.201C90.0301 16.5216 177.643 -51 177.643 -51L189.614 -41.1985C173.289 -18.8728 162.406 4.54198 159.141 33.9466C192.88 36.1247 219 64.4402 219 98.201C219 134.14 190.159 163 154.787 163Z" fill="#B1A7A6"/>
</svg>
